<mxfile host="app.diagrams.net" agent="Mozilla/5.0 (Macintosh; Intel Mac OS X 10_15_7) AppleWebKit/537.36 (KHTML, like Gecko) Chrome/128.0.0.0 Safari/537.36" version="24.7.7">
  <diagram id="R2lEEEUBdFMjLlhIrx00" name="Page-1">
    <mxGraphModel dx="1509" dy="826" grid="1" gridSize="10" guides="1" tooltips="1" connect="1" arrows="1" fold="1" page="1" pageScale="1" pageWidth="850" pageHeight="1100" math="0" shadow="0" extFonts="Permanent Marker^https://fonts.googleapis.com/css?family=Permanent+Marker">
      <root>
        <mxCell id="0" />
        <mxCell id="1" parent="0" />
        <mxCell id="2HmqbUUvOE0SA39xxcuR-3" value="email" style="ellipse;shape=doubleEllipse;margin=3;whiteSpace=wrap;html=1;align=center;" vertex="1" parent="1">
          <mxGeometry x="440" y="280" width="100" height="70" as="geometry" />
        </mxCell>
        <mxCell id="2HmqbUUvOE0SA39xxcuR-7" style="edgeStyle=orthogonalEdgeStyle;rounded=0;orthogonalLoop=1;jettySize=auto;html=1;exitX=1;exitY=0.5;exitDx=0;exitDy=0;entryX=0;entryY=0.5;entryDx=0;entryDy=0;" edge="1" parent="1" source="2HmqbUUvOE0SA39xxcuR-5" target="2HmqbUUvOE0SA39xxcuR-3">
          <mxGeometry relative="1" as="geometry" />
        </mxCell>
        <mxCell id="2HmqbUUvOE0SA39xxcuR-5" value="User Profile" style="whiteSpace=wrap;html=1;align=center;" vertex="1" parent="1">
          <mxGeometry x="280" y="310" width="100" height="40" as="geometry" />
        </mxCell>
        <mxCell id="2HmqbUUvOE0SA39xxcuR-8" value="age" style="ellipse;whiteSpace=wrap;html=1;align=center;dashed=1;" vertex="1" parent="1">
          <mxGeometry x="390" y="380" width="120" height="40" as="geometry" />
        </mxCell>
        <mxCell id="2HmqbUUvOE0SA39xxcuR-9" style="edgeStyle=orthogonalEdgeStyle;rounded=0;orthogonalLoop=1;jettySize=auto;html=1;entryX=0.61;entryY=0.975;entryDx=0;entryDy=0;entryPerimeter=0;" edge="1" parent="1" source="2HmqbUUvOE0SA39xxcuR-8" target="2HmqbUUvOE0SA39xxcuR-5">
          <mxGeometry relative="1" as="geometry" />
        </mxCell>
        <mxCell id="2HmqbUUvOE0SA39xxcuR-11" style="edgeStyle=orthogonalEdgeStyle;rounded=0;orthogonalLoop=1;jettySize=auto;html=1;entryX=0;entryY=0.25;entryDx=0;entryDy=0;" edge="1" parent="1" source="2HmqbUUvOE0SA39xxcuR-10" target="2HmqbUUvOE0SA39xxcuR-5">
          <mxGeometry relative="1" as="geometry">
            <Array as="points">
              <mxPoint x="225" y="380" />
              <mxPoint x="225" y="320" />
            </Array>
          </mxGeometry>
        </mxCell>
        <mxCell id="2HmqbUUvOE0SA39xxcuR-10" value="name" style="ellipse;whiteSpace=wrap;html=1;align=center;fontStyle=4;" vertex="1" parent="1">
          <mxGeometry x="180" y="360" width="100" height="40" as="geometry" />
        </mxCell>
        <mxCell id="2HmqbUUvOE0SA39xxcuR-12" value="Last Name" style="ellipse;whiteSpace=wrap;html=1;align=center;fontStyle=4;" vertex="1" parent="1">
          <mxGeometry x="260" y="460" width="100" height="40" as="geometry" />
        </mxCell>
        <mxCell id="2HmqbUUvOE0SA39xxcuR-13" value="First Name" style="ellipse;whiteSpace=wrap;html=1;align=center;fontStyle=4;" vertex="1" parent="1">
          <mxGeometry x="125" y="460" width="100" height="40" as="geometry" />
        </mxCell>
        <mxCell id="2HmqbUUvOE0SA39xxcuR-14" style="edgeStyle=orthogonalEdgeStyle;rounded=0;orthogonalLoop=1;jettySize=auto;html=1;entryX=0.29;entryY=0.95;entryDx=0;entryDy=0;entryPerimeter=0;" edge="1" parent="1" source="2HmqbUUvOE0SA39xxcuR-13" target="2HmqbUUvOE0SA39xxcuR-10">
          <mxGeometry relative="1" as="geometry" />
        </mxCell>
        <mxCell id="2HmqbUUvOE0SA39xxcuR-15" style="edgeStyle=orthogonalEdgeStyle;rounded=0;orthogonalLoop=1;jettySize=auto;html=1;exitX=0.5;exitY=0;exitDx=0;exitDy=0;entryX=0.58;entryY=1;entryDx=0;entryDy=0;entryPerimeter=0;" edge="1" parent="1" source="2HmqbUUvOE0SA39xxcuR-12" target="2HmqbUUvOE0SA39xxcuR-10">
          <mxGeometry relative="1" as="geometry" />
        </mxCell>
        <mxCell id="2HmqbUUvOE0SA39xxcuR-16" value="contact" style="ellipse;shape=doubleEllipse;margin=3;whiteSpace=wrap;html=1;align=center;" vertex="1" parent="1">
          <mxGeometry x="190" y="180" width="100" height="60" as="geometry" />
        </mxCell>
        <mxCell id="2HmqbUUvOE0SA39xxcuR-17" style="edgeStyle=orthogonalEdgeStyle;rounded=0;orthogonalLoop=1;jettySize=auto;html=1;entryX=0.32;entryY=0.1;entryDx=0;entryDy=0;entryPerimeter=0;" edge="1" parent="1" source="2HmqbUUvOE0SA39xxcuR-16" target="2HmqbUUvOE0SA39xxcuR-5">
          <mxGeometry relative="1" as="geometry" />
        </mxCell>
        <mxCell id="2HmqbUUvOE0SA39xxcuR-19" style="edgeStyle=orthogonalEdgeStyle;rounded=0;orthogonalLoop=1;jettySize=auto;html=1;entryX=0;entryY=0.5;entryDx=0;entryDy=0;" edge="1" parent="1" source="2HmqbUUvOE0SA39xxcuR-18" target="2HmqbUUvOE0SA39xxcuR-5">
          <mxGeometry relative="1" as="geometry" />
        </mxCell>
        <mxCell id="2HmqbUUvOE0SA39xxcuR-18" value="username" style="ellipse;whiteSpace=wrap;html=1;align=center;fontStyle=4;" vertex="1" parent="1">
          <mxGeometry x="110" y="270" width="90" height="40" as="geometry" />
        </mxCell>
        <mxCell id="2HmqbUUvOE0SA39xxcuR-20" value="can" style="shape=rhombus;perimeter=rhombusPerimeter;whiteSpace=wrap;html=1;align=center;" vertex="1" parent="1">
          <mxGeometry x="420" y="100" width="120" height="80" as="geometry" />
        </mxCell>
        <mxCell id="2HmqbUUvOE0SA39xxcuR-31" value="post like" style="whiteSpace=wrap;html=1;align=center;" vertex="1" parent="1">
          <mxGeometry x="700" y="120" width="100" height="40" as="geometry" />
        </mxCell>
        <mxCell id="2HmqbUUvOE0SA39xxcuR-32" value="" style="shape=link;html=1;rounded=0;exitX=1;exitY=0.5;exitDx=0;exitDy=0;" edge="1" parent="1" source="2HmqbUUvOE0SA39xxcuR-20">
          <mxGeometry relative="1" as="geometry">
            <mxPoint x="540" y="140" as="sourcePoint" />
            <mxPoint x="700" y="140" as="targetPoint" />
          </mxGeometry>
        </mxCell>
        <mxCell id="2HmqbUUvOE0SA39xxcuR-33" value="N" style="resizable=0;html=1;whiteSpace=wrap;align=right;verticalAlign=bottom;" connectable="0" vertex="1" parent="2HmqbUUvOE0SA39xxcuR-32">
          <mxGeometry x="1" relative="1" as="geometry" />
        </mxCell>
        <mxCell id="2HmqbUUvOE0SA39xxcuR-34" value="" style="endArrow=none;html=1;rounded=0;entryX=0;entryY=0.5;entryDx=0;entryDy=0;exitX=1;exitY=0;exitDx=0;exitDy=0;" edge="1" parent="1" source="2HmqbUUvOE0SA39xxcuR-5" target="2HmqbUUvOE0SA39xxcuR-20">
          <mxGeometry relative="1" as="geometry">
            <mxPoint x="340" y="400" as="sourcePoint" />
            <mxPoint x="500" y="400" as="targetPoint" />
          </mxGeometry>
        </mxCell>
        <mxCell id="2HmqbUUvOE0SA39xxcuR-35" value="1" style="resizable=0;html=1;whiteSpace=wrap;align=right;verticalAlign=bottom;" connectable="0" vertex="1" parent="2HmqbUUvOE0SA39xxcuR-34">
          <mxGeometry x="1" relative="1" as="geometry" />
        </mxCell>
        <mxCell id="2HmqbUUvOE0SA39xxcuR-36" value="timestamp" style="ellipse;whiteSpace=wrap;html=1;align=center;fontStyle=4;" vertex="1" parent="1">
          <mxGeometry x="740" y="190" width="100" height="40" as="geometry" />
        </mxCell>
        <mxCell id="2HmqbUUvOE0SA39xxcuR-37" value="post like id" style="ellipse;whiteSpace=wrap;html=1;align=center;fontStyle=4;" vertex="1" parent="1">
          <mxGeometry x="620" y="220" width="100" height="20" as="geometry" />
        </mxCell>
        <mxCell id="2HmqbUUvOE0SA39xxcuR-38" style="edgeStyle=orthogonalEdgeStyle;rounded=0;orthogonalLoop=1;jettySize=auto;html=1;entryX=0.33;entryY=0.9;entryDx=0;entryDy=0;entryPerimeter=0;" edge="1" parent="1" source="2HmqbUUvOE0SA39xxcuR-37" target="2HmqbUUvOE0SA39xxcuR-31">
          <mxGeometry relative="1" as="geometry" />
        </mxCell>
        <mxCell id="2HmqbUUvOE0SA39xxcuR-40" value="post comments" style="whiteSpace=wrap;html=1;align=center;" vertex="1" parent="1">
          <mxGeometry x="50" y="30" width="100" height="40" as="geometry" />
        </mxCell>
        <mxCell id="2HmqbUUvOE0SA39xxcuR-41" value="" style="shape=link;html=1;rounded=0;exitX=1;exitY=0.5;exitDx=0;exitDy=0;" edge="1" parent="1">
          <mxGeometry relative="1" as="geometry">
            <mxPoint x="150" y="49.5" as="sourcePoint" />
            <mxPoint x="310" y="49.5" as="targetPoint" />
          </mxGeometry>
        </mxCell>
        <mxCell id="2HmqbUUvOE0SA39xxcuR-42" value="N" style="resizable=0;html=1;whiteSpace=wrap;align=right;verticalAlign=bottom;" connectable="0" vertex="1" parent="2HmqbUUvOE0SA39xxcuR-41">
          <mxGeometry x="1" relative="1" as="geometry" />
        </mxCell>
        <mxCell id="2HmqbUUvOE0SA39xxcuR-43" value="comments" style="shape=rhombus;perimeter=rhombusPerimeter;whiteSpace=wrap;html=1;align=center;" vertex="1" parent="1">
          <mxGeometry x="310" y="10" width="120" height="80" as="geometry" />
        </mxCell>
        <mxCell id="2HmqbUUvOE0SA39xxcuR-44" value="" style="endArrow=none;html=1;rounded=0;entryX=0.5;entryY=1;entryDx=0;entryDy=0;exitX=0.384;exitY=0.074;exitDx=0;exitDy=0;exitPerimeter=0;" edge="1" parent="1" source="2HmqbUUvOE0SA39xxcuR-5" target="2HmqbUUvOE0SA39xxcuR-43">
          <mxGeometry relative="1" as="geometry">
            <mxPoint x="260" y="295" as="sourcePoint" />
            <mxPoint x="370" y="140" as="targetPoint" />
          </mxGeometry>
        </mxCell>
        <mxCell id="2HmqbUUvOE0SA39xxcuR-45" value="1" style="resizable=0;html=1;whiteSpace=wrap;align=right;verticalAlign=bottom;" connectable="0" vertex="1" parent="2HmqbUUvOE0SA39xxcuR-44">
          <mxGeometry x="1" relative="1" as="geometry" />
        </mxCell>
        <mxCell id="2HmqbUUvOE0SA39xxcuR-47" value="" style="edgeStyle=orthogonalEdgeStyle;rounded=0;orthogonalLoop=1;jettySize=auto;html=1;" edge="1" parent="1" source="2HmqbUUvOE0SA39xxcuR-46" target="2HmqbUUvOE0SA39xxcuR-40">
          <mxGeometry relative="1" as="geometry" />
        </mxCell>
        <mxCell id="2HmqbUUvOE0SA39xxcuR-46" value="timestamp" style="ellipse;whiteSpace=wrap;html=1;align=center;fontStyle=4;" vertex="1" parent="1">
          <mxGeometry x="60" y="100" width="100" height="40" as="geometry" />
        </mxCell>
        <mxCell id="2HmqbUUvOE0SA39xxcuR-49" style="edgeStyle=orthogonalEdgeStyle;rounded=0;orthogonalLoop=1;jettySize=auto;html=1;entryX=1;entryY=0.75;entryDx=0;entryDy=0;" edge="1" parent="1" source="2HmqbUUvOE0SA39xxcuR-48" target="2HmqbUUvOE0SA39xxcuR-40">
          <mxGeometry relative="1" as="geometry" />
        </mxCell>
        <mxCell id="2HmqbUUvOE0SA39xxcuR-48" value="post comment id" style="ellipse;whiteSpace=wrap;html=1;align=center;fontStyle=4;" vertex="1" parent="1">
          <mxGeometry x="180" y="80" width="100" height="40" as="geometry" />
        </mxCell>
        <mxCell id="2HmqbUUvOE0SA39xxcuR-50" value="text content" style="ellipse;whiteSpace=wrap;html=1;align=center;fontStyle=4;" vertex="1" parent="1">
          <mxGeometry x="30" y="160" width="95" height="40" as="geometry" />
        </mxCell>
        <mxCell id="2HmqbUUvOE0SA39xxcuR-51" style="edgeStyle=orthogonalEdgeStyle;rounded=0;orthogonalLoop=1;jettySize=auto;html=1;entryX=0.105;entryY=1.047;entryDx=0;entryDy=0;entryPerimeter=0;" edge="1" parent="1" source="2HmqbUUvOE0SA39xxcuR-50" target="2HmqbUUvOE0SA39xxcuR-40">
          <mxGeometry relative="1" as="geometry">
            <Array as="points">
              <mxPoint x="72" y="130" />
              <mxPoint x="60" y="130" />
            </Array>
          </mxGeometry>
        </mxCell>
        <mxCell id="2HmqbUUvOE0SA39xxcuR-52" value="user posts" style="whiteSpace=wrap;html=1;align=center;" vertex="1" parent="1">
          <mxGeometry x="370" y="580" width="100" height="40" as="geometry" />
        </mxCell>
        <mxCell id="2HmqbUUvOE0SA39xxcuR-54" value="has" style="shape=rhombus;perimeter=rhombusPerimeter;whiteSpace=wrap;html=1;align=center;" vertex="1" parent="1">
          <mxGeometry x="650" y="410" width="120" height="80" as="geometry" />
        </mxCell>
        <mxCell id="2HmqbUUvOE0SA39xxcuR-55" value="" style="shape=link;html=1;rounded=0;exitX=0.5;exitY=0;exitDx=0;exitDy=0;entryX=0.5;entryY=1;entryDx=0;entryDy=0;" edge="1" parent="1" source="2HmqbUUvOE0SA39xxcuR-54" target="2HmqbUUvOE0SA39xxcuR-31">
          <mxGeometry relative="1" as="geometry">
            <mxPoint x="720" y="410" as="sourcePoint" />
            <mxPoint x="860" y="410" as="targetPoint" />
          </mxGeometry>
        </mxCell>
        <mxCell id="2HmqbUUvOE0SA39xxcuR-56" value="N" style="resizable=0;html=1;whiteSpace=wrap;align=right;verticalAlign=bottom;" connectable="0" vertex="1" parent="2HmqbUUvOE0SA39xxcuR-55">
          <mxGeometry x="1" relative="1" as="geometry" />
        </mxCell>
        <mxCell id="2HmqbUUvOE0SA39xxcuR-57" value="has" style="shape=rhombus;perimeter=rhombusPerimeter;whiteSpace=wrap;html=1;align=center;" vertex="1" parent="1">
          <mxGeometry x="40" y="510" width="120" height="80" as="geometry" />
        </mxCell>
        <mxCell id="2HmqbUUvOE0SA39xxcuR-58" value="" style="shape=link;html=1;rounded=0;exitX=0.5;exitY=0;exitDx=0;exitDy=0;entryX=0.25;entryY=1;entryDx=0;entryDy=0;" edge="1" parent="1" source="2HmqbUUvOE0SA39xxcuR-57" target="2HmqbUUvOE0SA39xxcuR-40">
          <mxGeometry relative="1" as="geometry">
            <mxPoint x="100" y="510" as="sourcePoint" />
            <mxPoint x="140" y="260" as="targetPoint" />
          </mxGeometry>
        </mxCell>
        <mxCell id="2HmqbUUvOE0SA39xxcuR-59" value="N" style="resizable=0;html=1;whiteSpace=wrap;align=right;verticalAlign=bottom;" connectable="0" vertex="1" parent="2HmqbUUvOE0SA39xxcuR-58">
          <mxGeometry x="1" relative="1" as="geometry" />
        </mxCell>
        <mxCell id="2HmqbUUvOE0SA39xxcuR-60" value="" style="endArrow=none;html=1;rounded=0;entryX=0.5;entryY=1;entryDx=0;entryDy=0;exitX=1;exitY=0.5;exitDx=0;exitDy=0;" edge="1" parent="1" source="2HmqbUUvOE0SA39xxcuR-52" target="2HmqbUUvOE0SA39xxcuR-54">
          <mxGeometry relative="1" as="geometry">
            <mxPoint x="660" y="713" as="sourcePoint" />
            <mxPoint x="712" y="490" as="targetPoint" />
          </mxGeometry>
        </mxCell>
        <mxCell id="2HmqbUUvOE0SA39xxcuR-61" value="1" style="resizable=0;html=1;whiteSpace=wrap;align=right;verticalAlign=bottom;" connectable="0" vertex="1" parent="2HmqbUUvOE0SA39xxcuR-60">
          <mxGeometry x="1" relative="1" as="geometry" />
        </mxCell>
        <mxCell id="2HmqbUUvOE0SA39xxcuR-62" value="" style="endArrow=none;html=1;rounded=0;entryX=0.5;entryY=1;entryDx=0;entryDy=0;exitX=0;exitY=0.75;exitDx=0;exitDy=0;" edge="1" parent="1" source="2HmqbUUvOE0SA39xxcuR-52" target="2HmqbUUvOE0SA39xxcuR-57">
          <mxGeometry relative="1" as="geometry">
            <mxPoint x="-80" y="690" as="sourcePoint" />
            <mxPoint x="100" y="590" as="targetPoint" />
          </mxGeometry>
        </mxCell>
        <mxCell id="2HmqbUUvOE0SA39xxcuR-63" value="1" style="resizable=0;html=1;whiteSpace=wrap;align=right;verticalAlign=bottom;" connectable="0" vertex="1" parent="2HmqbUUvOE0SA39xxcuR-62">
          <mxGeometry x="1" relative="1" as="geometry" />
        </mxCell>
        <mxCell id="2HmqbUUvOE0SA39xxcuR-64" value="image" style="ellipse;shape=doubleEllipse;margin=3;whiteSpace=wrap;html=1;align=center;" vertex="1" parent="1">
          <mxGeometry x="260" y="690" width="100" height="70" as="geometry" />
        </mxCell>
        <mxCell id="2HmqbUUvOE0SA39xxcuR-65" value="video" style="ellipse;shape=doubleEllipse;margin=3;whiteSpace=wrap;html=1;align=center;" vertex="1" parent="1">
          <mxGeometry x="460" y="680" width="100" height="70" as="geometry" />
        </mxCell>
        <mxCell id="2HmqbUUvOE0SA39xxcuR-66" style="edgeStyle=orthogonalEdgeStyle;rounded=0;orthogonalLoop=1;jettySize=auto;html=1;entryX=0.842;entryY=1.034;entryDx=0;entryDy=0;entryPerimeter=0;" edge="1" parent="1" source="2HmqbUUvOE0SA39xxcuR-65" target="2HmqbUUvOE0SA39xxcuR-52">
          <mxGeometry relative="1" as="geometry" />
        </mxCell>
        <mxCell id="2HmqbUUvOE0SA39xxcuR-67" style="edgeStyle=orthogonalEdgeStyle;rounded=0;orthogonalLoop=1;jettySize=auto;html=1;entryX=0.105;entryY=1.034;entryDx=0;entryDy=0;entryPerimeter=0;" edge="1" parent="1" source="2HmqbUUvOE0SA39xxcuR-64" target="2HmqbUUvOE0SA39xxcuR-52">
          <mxGeometry relative="1" as="geometry" />
        </mxCell>
        <mxCell id="2HmqbUUvOE0SA39xxcuR-68" value="text content" style="ellipse;whiteSpace=wrap;html=1;align=center;fontStyle=4;" vertex="1" parent="1">
          <mxGeometry x="360" y="750" width="100" height="40" as="geometry" />
        </mxCell>
        <mxCell id="2HmqbUUvOE0SA39xxcuR-69" style="edgeStyle=orthogonalEdgeStyle;rounded=0;orthogonalLoop=1;jettySize=auto;html=1;entryX=0.442;entryY=0.929;entryDx=0;entryDy=0;entryPerimeter=0;" edge="1" parent="1" source="2HmqbUUvOE0SA39xxcuR-68" target="2HmqbUUvOE0SA39xxcuR-52">
          <mxGeometry relative="1" as="geometry">
            <Array as="points">
              <mxPoint x="410" y="690" />
              <mxPoint x="414" y="690" />
            </Array>
          </mxGeometry>
        </mxCell>
        <mxCell id="2HmqbUUvOE0SA39xxcuR-72" style="edgeStyle=orthogonalEdgeStyle;rounded=0;orthogonalLoop=1;jettySize=auto;html=1;entryX=0;entryY=0.75;entryDx=0;entryDy=0;" edge="1" parent="1" source="2HmqbUUvOE0SA39xxcuR-71" target="2HmqbUUvOE0SA39xxcuR-52">
          <mxGeometry relative="1" as="geometry" />
        </mxCell>
        <mxCell id="2HmqbUUvOE0SA39xxcuR-71" value="post id" style="ellipse;whiteSpace=wrap;html=1;align=center;fontStyle=4;" vertex="1" parent="1">
          <mxGeometry x="150" y="660" width="100" height="40" as="geometry" />
        </mxCell>
        <mxCell id="2HmqbUUvOE0SA39xxcuR-75" style="edgeStyle=orthogonalEdgeStyle;rounded=0;orthogonalLoop=1;jettySize=auto;html=1;entryX=0.25;entryY=1;entryDx=0;entryDy=0;" edge="1" parent="1" source="2HmqbUUvOE0SA39xxcuR-73" target="2HmqbUUvOE0SA39xxcuR-52">
          <mxGeometry relative="1" as="geometry" />
        </mxCell>
        <mxCell id="2HmqbUUvOE0SA39xxcuR-73" value="modified timestamp" style="ellipse;whiteSpace=wrap;html=1;align=center;fontStyle=4;" vertex="1" parent="1">
          <mxGeometry x="125" y="740" width="100" height="40" as="geometry" />
        </mxCell>
        <mxCell id="2HmqbUUvOE0SA39xxcuR-76" style="edgeStyle=orthogonalEdgeStyle;rounded=0;orthogonalLoop=1;jettySize=auto;html=1;exitX=0;exitY=0.5;exitDx=0;exitDy=0;entryX=1;entryY=0.75;entryDx=0;entryDy=0;" edge="1" parent="1" source="2HmqbUUvOE0SA39xxcuR-74" target="2HmqbUUvOE0SA39xxcuR-52">
          <mxGeometry relative="1" as="geometry" />
        </mxCell>
        <mxCell id="2HmqbUUvOE0SA39xxcuR-74" value="created timestamp" style="ellipse;whiteSpace=wrap;html=1;align=center;fontStyle=4;" vertex="1" parent="1">
          <mxGeometry x="590" y="630" width="130" height="40" as="geometry" />
        </mxCell>
      </root>
    </mxGraphModel>
  </diagram>
</mxfile>
